<svg xmlns="http://www.w3.org/2000/svg" viewBox="0 0 64 64">

  <g>
    <g>
      <path fill="none" stroke="#72b9d5" stroke-linecap="round" stroke-linejoin="round"
        stroke-width="2"
        d="M29.33 26.68a10.61 10.61 0 01-10.68-10.54A10.5 10.5 0 0119 13.5a10.54 10.54 0 1011.5 13.11 11.48 11.48 0 01-1.17.07z" />
      <animateTransform attributeName="transform" dur="10s" repeatCount="indefinite" type="rotate"
        values="-10 19.22 24.293;10 19.22 24.293;-10 19.22 24.293" />
    </g>
  </g>
  <path fill="none" stroke="#e5e7eb" stroke-linejoin="round" stroke-width="3"
    d="M 39.346 37.741 L 39.164 37.741 C 40.247 33.518 36.09 29.77 31.681 30.994 C 30.271 31.386 29.064 32.255 28.29 33.436 C 25.652 31.957 22.311 33.733 22.276 36.632 C 22.276 36.643 22.275 36.654 22.275 36.665 C 22.277 36.87 22.296 37.075 22.332 37.278 C 19.108 37.875 17.777 41.549 19.936 43.891 C 20.741 44.764 21.904 45.268 23.129 45.274 C 23.224 45.28 23.319 45.28 23.413 45.274 L 39.346 45.274 C 42.412 45.274 44.328 42.135 42.795 39.624 C 42.084 38.459 40.769 37.741 39.346 37.741 Z"
    style="" transform="matrix(1, 0, 0, 1, -8.881784197001252e-16, 0)" />
</svg>